<?xml version="1.0" encoding="UTF-8"?>
<svg id="Layer_1" data-name="Layer 1" xmlns="http://www.w3.org/2000/svg" viewBox="0 0 350 350">
  <defs>
    <style>
      .cls-1 {
        fill: #141850;
      }
    </style>
  </defs>
  <path class="cls-1" d="M206.4,141.14c-2.16,.72-4.52,1.1-6.4,2.25-1.56,.95-2.55,2.83-3.84,4.26-.16,.18-.65,.17-.95,.1-1.04-.26-2.07-.59-3.1-.9-.08,.27-.28,.58-.21,.81,.75,2.64,1.55,5.27,2.32,7.91,1.11,3.78-.85,7.33-5.17,8.35-4.15,.98-7.93,2.65-9.07,7.41-.03,.11-.14,.21-.15,.33-.17,1.19-.36,2.37-.47,3.56-.1,1.02,2.02,2.56,3.08,2.23,.67-.21,1.29-.58,1.94-.86,.3-.13,.62-.21,.92-.31-.16,.43-.19,1.08-.49,1.26-1.5,.88-2.91,1.34-4.86,.67-3.53-1.22-5.12-3.73-5.5-7.05-.53-4.64,1.66-7.02,5.43-9.19,5.65-3.26,7.57-6.8,4.78-12.95-.19-.43-.32-.89-.44-1.34-.03-.12,.07-.29,.15-.4,.02-.03,.29,.03,.31,.09,.28,.81,.49,1.64,.82,2.43,.21,.5,.75,.9,.87,1.41,1.09,4.6,.76,6.72-3.37,10.18-1.75,1.46-3.84,2.52-5.55,4.02-2.05,1.81-2.23,4.28-1.57,6.83,.06,.22,.21,.42,.31,.63,.07-.24,.15-.49,.22-.73,.48-1.58,.93-3.17,1.45-4.73,.07-.22,.48-.32,.73-.48,.04,.34,.24,.76,.1,1-1.3,2.25-1.29,4.59-.6,6.99,.09,.3,.4,.54,.6,.81-.04-.25-.1-.5-.13-.75-.66-5.61,3.22-11,8.52-11.88,2.68-.45,5.72-1.3,6.24-4.84,.14-.97,.1-2.02-.13-2.96-.61-2.41-1.52-4.74-2.01-7.17-.29-1.44-1.21-1.6-2.19-1.59-1.8,.02-3.6,.3-5.4,.42-1.8,.12-3.61,.15-5.41,.24-2.76,.14-5.56,.67-8.26,.36-3.5-.41-7.04-1.18-10.35-2.39-2.31-.84-4.28-2.63-6.35-4.07-5.27-3.66-6.83-9.58-9.19-15.06-2.81-6.52-5.56-13.12-10.56-18.38-3.32-3.48-5.73-7.4-6.35-12.25-.06-.47,.17-.98,.27-1.48,.25,.37,.6,.7,.74,1.11,.65,1.88,.96,3.93,1.92,5.62,1.43,2.5,3.43,4.67,4.99,7.11,2.61,4.09,5.28,8.17,7.51,12.47,2.18,4.2,3.69,8.74,5.75,13.01,2.45,5.07,6.07,9.14,11.67,10.77,4.08,1.19,8.24,2.35,12.44,2.84,2.82,.33,5.77-.65,8.67-.83,2.34-.14,4.71,.06,7.06,.06,1.84,0,3.74-.4,5.5-.05,1.64,.32,2.46-.17,3.31-1.37,.53-.74,1.27-1.32,1.93-1.97,.39-.38,.79-.75,1.19-1.12-.49-.39-.94-.85-1.47-1.17-5.07-3.02-10.44-2.29-15.94-1.6-3.58,.45-7.26,.06-10.89,.06-4.96,0-9.46-1.67-13.76-3.89-3.85-1.99-7.1-4.66-7.91-9.26-.36-2.03-.68-4.15,.84-5.93,.2-.24,.62-.29,.93-.43,.06,.31,.27,.68,.17,.92-2.53,5.83,1.19,10.98,5.8,13.24,2.77,1.35,5.7,2.38,8.56,3.54,.24,.1,.54,.06,.81,.08-.07-.2-.1-.44-.22-.6-2.98-4.07-5.71-8.37-9.05-12.13-2.51-2.82-5.63-5.2-8.79-7.32-4.86-3.28-8.99-7.19-12.31-12-.23-.34-.15-.88-.22-1.33,.4,.22,.96,.34,1.17,.67,3.19,5.22,7.82,8.91,12.81,12.26,2.23,1.5,4.47,3.15,6.22,5.15,2.86,3.26,5.28,6.9,7.98,10.3,1.42,1.78,2.97,3.48,4.63,5.04,.6,.56,1.67,.8,2.54,.86,2.12,.14,4.25,.1,6.38,.09,.34,0,.69-.21,1.03-.33-.27-.15-.59-.24-.79-.46-2.73-3-5.56-5.91-8.1-9.06-1.57-1.95-2.44-4.5-4.12-6.3-.9-.97-1.36-1.77-1.53-2.97-.22-1.51-1.63-.98-2.52-1.36-4.11-1.76-8.62-2.99-12.21-5.51-3.79-2.66-6.71-6.56-9.97-9.95-.22-.23-.18-.72-.26-1.09,.4,.18,.91,.27,1.18,.56,2.26,2.42,4.21,5.2,6.76,7.25,2.79,2.25,6.07,3.93,9.24,5.66,1.39,.76,3.03,1.06,4.56,1.53,.32,.1,.7,0,1.06,0-.13-.29-.21-.62-.4-.85-2.81-3.42-5.78-6.67-9.76-8.78-.25-.13-.37-.49-.55-.74,.4-.05,.94-.28,1.17-.11,2.67,2.05,5.35,4.08,7.9,6.28,1.11,.96,1.9,2.29,2.86,3.44,.24,.29,.53,.52,.8,.79,.05-.43,.28-.94,.12-1.26-1.28-2.67-2.2-5.67-4.04-7.88-3.86-4.64-9.39-6.92-14.96-8.84-4.27-1.48-8.72-2.44-12.94-4.01-3.66-1.36-7.01-3.4-9.35-6.73-.5-.72-1.17-1.32-1.66-2.05-.24-.35-.23-.86-.33-1.3,.36,.17,.85,.24,1.07,.52,3.2,3.98,6.98,7.23,11.86,8.91,4.34,1.5,8.81,2.64,13.15,4.15,2.91,1.01,5.68,2.44,8.55,3.56,.97,.38,2.13,.26,3.14,.58,2.94,.92,5.85,1.95,8.77,2.93,1.28,.42,2.57,.82,3.86,1.2,.2,.06,.53,.01,.68-.12,.34-.29,.61-.67,.9-1.02-.08,.37-.23,.74-.21,1.1,0,.11,.45,.28,.7,.29,4.33,.23,8.01-1.44,11.36-4,.69-.53,1.31-1.15,2.03-1.65,.22-.16,.64-.04,.96-.05-.01,.32,.1,.82-.05,.92-2.48,1.55-4.89,3.26-7.52,4.49-1.83,.86-3.95,1.28-5.98,1.48-3.41,.33-6.41-1.24-9.48-2.47-2.02-.81-4.18-1.27-6.28-1.88-.2-.06-.43,0-.64-.01,.16,.17,.29,.38,.48,.51,3.12,2.15,5.48,4.97,6.63,8.56,.7,2.2,.73,4.61,1.15,6.9,.08,.44,.49,1.02,.89,1.16,5.59,2.03,11.27,2.53,17.25,1.83,5.91-.69,10.73-2.85,15.02-6.93,3.85-3.66,7.84-7.35,12.36-10.07,3.56-2.15,8.01-2.81,12.05-4.17,1.54-.52,3.05-1.15,4.56-1.77,.22-.09,.36-.38,.54-.58-.22,.02-.51,.14-.66,.05-.9-.54-1.8-1.08-2.63-1.71-3.52-2.67-7.05-5.33-10.5-8.08-2.1-1.68-4.17-3.25-7.07-3.1-1.05,.05-1.7,.11-1.05,1.43,1.58,3.23,2.89,6.61,4.74,9.67,.44,.73,2.65,.74,3.93,.5,1.46-.27,2.8-1.21,4.21-1.8,.46-.19,1.01-.19,1.51-.28-.32,.43-.57,.96-.98,1.28-2.87,2.24-6.25,2.38-9.67,2.19-3.97-.22-7.9,.08-11.05,2.7-1.72,1.43-3.06,3.42-4.26,5.35-2.73,4.37-6.52,7.31-11.23,9.25-3.35,1.38-6.73,1.18-9.81-.28-1.74-.82-2.97-2.74-4.37-4.22-.1-.11,.26-.66,.4-1.01,.28,.15,.73,.25,.81,.47,1.14,3.3,3.95,4.8,7.37,4.86,5.46,.09,9.61-2.62,13.15-6.44,1.02-1.1,1.78-2.42,2.68-3.64,.64-.86,.5-1.52-.44-2.06-2.15-1.22-4.22-2.58-6.43-3.68-3.5-1.73-7.28-2.16-11.14-1.9-4.73,.31-9.42,.23-14-1.17-.33-.1-.53-.59-.79-.91,.4-.08,.85-.3,1.2-.2,3.25,.95,6.46,1.53,9.94,1.27,7.44-.54,14.71,.03,20.94,4.97,.79,.62,1.89,1.73,3.24-.14,1.89-2.61,5.07-3.43,8.11-4.23,.28-.07,.67-.97,.54-1.17-3.03-4.42-6.08-8.83-9.22-13.18-1.7-2.35-3.7-4.5-5.33-6.9-.97-1.44-2.01-.89-3.13-.65-1.17,.25-2.38,.97-3.46,.8-2.51-.39-3.9,1.32-5.62,2.45-2.08,1.37-4.15,2.78-6.21,4.19-.09,.06-.12,.43-.08,.44,4.08,1.88,8.28,3.45,12.85,2.5,2.98-.62,5.86-1.75,8.8-2.6,.49-.14,1.06-.06,1.58,0,.09,.01,.24,.66,.17,.7-.42,.24-.87,.44-1.34,.57-2.57,.72-5.24,1.19-7.7,2.18-3.15,1.26-6.13,.39-9.15-.16-1.5-.27-2.96-.92-4.35-1.59-2.37-1.15-4.86-1.54-7.42-1.23-2.5,.3-5,.72-7.43,1.35-4.56,1.18-8.93,.26-13.27-.94-4.5-1.24-8.93-2.73-13.4-4.06-.41-.12-.93,.15-1.4,.2-.34,.03-.68-.02-1.02-.04,.26-.31,.49-.85,.8-.9,1.11-.18,2.34-.51,3.35-.21,4.25,1.27,8.4,2.9,12.67,4.11,4.14,1.18,8.34,1.63,12.67,.46,2.79-.75,5.75-1.12,8.65-1.17,4.33-.07,7.33-2.54,10.42-4.99,.16-.12,.19-.4,.28-.61-.24-.03-.48-.12-.71-.09-4.22,.47-8.3-.44-12.16-1.82-3.91-1.4-7.71-3.27-11.3-5.38-2.4-1.42-4.76-2.14-7.36-1.56-3.05,.68-5.44-.63-7.75-2.14-5.54-3.63-11.38-4.06-17.23-1.3-4.15,1.96-7.97,4.61-11.97,6.9-.24,.14-.71-.11-1.08-.17,.13-.42,.14-1.08,.42-1.22,5.34-2.69,10.55-5.73,16.12-7.83,4.52-1.71,9.25-.78,13.53,1.75,2.27,1.33,4.36,3.16,7.32,2.77,1.58-.21,3.35-.74,4.74-.26,2.32,.8,4.33,2.45,6.61,3.44,3.85,1.67,7.75,3.23,11.71,4.61,6.02,2.1,12.1,.54,18.16,0,.96-.09,2.07-.4,.78-1.72-3.15-3.24-6.17-6.62-9.43-9.76-4.01-3.87-8.11-7.66-12.36-11.26-1.87-1.58-4.2-2.6-6.32-3.88-2.75-1.67-5.39-3.56-8.28-4.92-1.34-.63-3.2-.09-4.77-.36-5.16-.88-9.37,1.69-13.74,3.64-1.94,.86-3.57,.35-5.38-.44-2.99-1.29-6.02-2.17-9.37-.72-4.2,1.82-7.09,4.89-9.69,8.51-1.23,1.71-3.17,2.92-4.84,4.28-.26,.21-.85,.02-1.28,.02,.29-.36,.5-.89,.88-1.05,2.93-1.24,4.44-3.81,6.24-6.21,2.97-3.94,6.84-6.81,11.88-7.31,1.95-.19,4.27,.12,5.93,1.06,3.68,2.09,6.66,.66,9.72-1.08,3.16-1.8,6.58-2.05,10.1-2.01,.91,.01,1.84-.3,2.74-.53,1.46-.37,2.89-1,4.38-1.17,6.3-.7,12.51-1.39,18.56-3.74,5.82-2.26,11.87-4.25,18.25-4.33,3.79-.05,7.24,1.15,10.01,3.93,.8,.81,1.82,1.4,2.62,2.21,.26,.27,.1,.92,.21,1.37,.05,.2,.32,.49,.49,.49,5.54,.09,10.13,2.51,14.54,5.62,1.46,1.03,3.41,1.42,5.18,1.96,1.42,.44,3.66,3.12,3.48,4.5-.03,.18-.56,.33-.88,.43-.08,.02-.3-.19-.34-.32-.91-3.13-3.74-3.47-6.21-4.56-2.69-1.18-5.05-3.06-7.67-4.43-3.27-1.71-6.84-2.23-10.51-2.24-.68,0-1.35-.35-2.03-.54,.68-.21,1.36-.45,2.05-.63,.41-.11,.84-.12,1.27-.18-.31-.31-.59-.66-.93-.94-1.58-1.28-3.07-2.71-4.79-3.78-3.09-1.93-6.62-2.22-10.02-1.34-6.72,1.75-13.35,3.82-20.02,5.79-.44,.13-.82,.49-1.23,.74,.39,.2,.78,.41,1.17,.61,3.82,2,7.12,4.59,9.92,7.92,2.51,2.99,5.33,5.72,8,8.57,.33,.35,.61,.74,.9,1.12,1.08,1.38,1.95,2.83,4.25,1.83,2.73-1.18,4.85,.34,6.67,2.27,2.86,3.03,6.66,3.31,10.47,3.86,1.9,.28,3.89,1.03,5.49,2.1,4.04,2.69,8.36,4.53,13.16,5.13,.99,.12,2.05-.33,3.08-.38,.34-.02,.71,.41,1.06,.63-.28,.26-.53,.7-.84,.75-6.58,1.07-11.99-1.71-17.27-5.15-1.48-.97-3.36-1.78-5.08-1.82-4.69-.12-8.67-1.64-11.87-5.01-1.52-1.6-3.23-1.62-5.09-1.15-.83,.21-1,.73-.42,1.52,4.66,6.38,9.36,12.74,13.86,19.23,1.06,1.53,1.56,2.79,3.95,2.46,4.42-.61,7.32,2.71,10.52,5.01,3.46,2.49,6.81,5.13,10.19,7.72,.33,.25,.55,.62,.86,.9,.12,.11,.42,.19,.51,.12,3.83-3.04,8.19-5.63,11.29-9.29,2.42-2.86,2.47-7.19,.65-10.83-1.61-3.23-3.66-6.24-5.55-9.33-.17-.29-.54-.45-.82-.67-.08,.24-.09,.58-.26,.71-.28,.22-.72,.49-.99,.42-2.94-.84-5.86-1.73-8.77-2.63-4.28-1.32-7.93-3.68-10.41-7.38-2.31-3.44-5.28-5.42-9.36-5.86-.27-.03-.51-.38-.76-.58,.33-.21,.71-.64,.98-.58,3.78,.82,7.45,1.83,9.79,5.36,3.47,5.22,8.43,8,14.6,8.83,1.44,.19,2.83,.78,4.25,1.18,.21,.06,.44,.03,.67,.05-.14-.18-.31-.34-.41-.54-.34-.67-2.14-.57-1.04-1.88,.1-.12,1.55,.53,2,1.1,3.25,4.19,6.44,8.45,8.05,13.6,.32,1.02,.42,2.21,.26,3.26-.48,3.08,.18,6.03,.79,9,.06,.28,.35,.52,.53,.78,.2-.28,.53-.54,.59-.84,.52-3.04,1.09-6.07,1.45-9.13,.31-2.61,.36-5.25,.53-7.87,.01-.17,.12-.33,.18-.5,.19,.28,.53,.57,.54,.85,.05,1.98,.09,3.96,0,5.94-.08,1.93-.21,3.87-.48,5.78-.31,2.16-.38,4.5-1.33,6.37-.78,1.55,0,2.38,.36,3.49,.13,.38,.53,.67,.8,1,.31-.4,.79-.75,.91-1.2,1.78-6.4,3.62-12.8,3.66-19.52,.02-3.62,.06-7.27-.28-10.87-.38-3.93-3.07-6.08-6.98-5.91-3.36,.15-6.72,.45-10.07,.73-.16,.01-.4,.56-.38,.84,.02,.33,.41,.65,.41,.97,0,.59-.16,1.18-.26,1.76-.33-.36-.73-.68-.99-1.09-2.29-3.73-4.89-7.11-9.08-8.9-.26-.11-.46-.36-.69-.55,.3-.14,.7-.47,.9-.38,1.46,.67,3.03,1.23,4.27,2.21,1.45,1.14,2.59,2.67,3.88,4.01,.19,.19,.53,.45,.73,.39,1.39-.35,2.76-1.09,4.14-1.12,3.95-.08,8.04-.94,11.77,1.1,.93,.51,1.63,1.42,2.46,2.11,.29,.24,.63,.49,.98,.55,3.61,.56,6.94,1.71,9.2,4.79,2.64,3.58,3.77,7.6,2.96,12.04-.94,5.17-1.89,10.34-2.93,15.49-1.1,5.42-3.44,10.32-6.3,15.03-1.11,1.84-2.53,3.88-2.59,5.87-.09,3.02-1.11,5.24-3.04,7.36-.93,1.03-1.46,2.42-2.21,3.62-.16,.26-.5,.42-.76,.63-.09-.3-.34-.69-.23-.9,.7-1.4,1.15-3.15,2.27-4.07,3.04-2.51,2.92-5.74,2.5-9.01-.24-1.85-1.01-3.65-1.6-5.44-.06-.19-.57-.3-.88-.32-.18-.02-.38,.2-.58,.31-.09-.25-.29-.54-.24-.76,.87-3.78-.87-6.85-2.63-9.94-.65-1.14-1.15-2.36-1.76-3.53-.11-.22-.38-.36-.58-.54-.07,.21-.15,.42-.21,.63-1.13,3.93-4.29,6.27-7.09,8.85-3.86,3.56-8.92,4.71-13.68,6.35-4.38,1.51-7.42,4.36-9.56,8.33-.34,.63-.72,1.25-1.11,1.85-.36,.54-.77,1.05-1.15,1.57,.77,.2,1.53,.51,2.32,.59,3.34,.35,6.23-.32,8.28-3.35,2.15-3.18,5.66-4.31,8.97-5.86,2.6-1.22,4.82-3.25,7.21-4.91,.29-.2,.65-.3,.97-.45-.01,.33,.11,.78-.06,.97-1.04,1.17-1.99,2.54-3.27,3.35-1.83,1.16-3.88,2.05-5.93,2.76-3.12,1.08-5.6,2.91-7.38,5.63-1.15,1.76-2.85,2.56-4.73,2.7-2.28,.17-4.6-.3-6.87-.09-1.15,.11-2.31,.97-3.3,1.72-4.67,3.51-10.07,5.23-15.72,5.91-3.87,.47-7.85,.11-11.78,.05-.48,0-.95-.52-1.43-.8,.48-.05,.96-.12,1.44-.13,2.72-.08,5.45-.38,8.14-.18,5.11,.37,9.85-.9,14.35-3.02,4.51-2.13,8.16-5.37,10.54-9.83,2.12-3.99,5.36-6.37,9.6-7.79,3.71-1.24,7.5-2.5,10.84-4.46,3.62-2.12,6.91-4.97,8.58-9.06,.59-1.44,.59-3.13,.82-4.71,.04-.24-.12-.51-.18-.76-.19,.17-.39,.33-.57,.52-4.13,4.56-9.03,8.16-14.64,10.57-3.77,1.62-7.87,2.47-11.83,3.63-4.37,1.27-7.76,4.09-11.05,7.03-2.85,2.55-5.41,5.46-8.41,7.79-3.33,2.59-7.32,3.76-11.61,3.84-2.91,.05-5.83,.61-8.71,.44-2.55-.16-5.06-1.02-7.59-1.56-.22-.05-.43-.1-.65-.15,.02,.22-.04,.49,.06,.66,3.02,5.11,5.75,10.41,10.9,13.9,2.41,1.63,4.94,1.17,7.52,1.24,3.14,.09,6.28,.45,9.42,.65,.46,.03,1.13-.07,1.39-.37,3.54-4.06,7.92-4.46,12.85-3.35,5.38,1.2,10.11,.19,13.85-4.36,2.64-3.23,6.14-5.39,9.95-7.2,1.91-.91,3.29-2.91,4.91-4.42,.37-.34,.75-.66,1.13-.99,.03,.4,.25,.95,.07,1.19-1.14,1.47-2.25,3-3.6,4.26-.91,.84-2.16,1.39-3.34,1.84-4.2,1.61-6.95,5.04-10.11,7.95-3.11,2.86-6.79,3.44-10.83,2.98-2.91-.33-5.91-.85-8.75-.46-1.8,.25-3.4,2-5.06,3.13-.11,.08-.03,.76,.1,.81,1.29,.47,2.18,1.75,3.94,1.4,1.18-.24,2.55,.43,3.83,.69l.04-.03Zm2.73-43.42c.37-.15,.75-.29,1.12-.44,0-.43,.15-.94-.02-1.29-1.89-3.91-3.56-7.97-5.81-11.66-3.13-5.13-6.56-10.1-10.13-14.93-3.49-4.71-7.15-9.32-11.04-13.71-4.63-5.22-8.88-10.95-15.47-14-1.66-.77-3.55-1.53-5.3-1.48-2.93,.09-5.85,.84-8.77,1.33-.39,.06-.77,.19-1.16,.28,.3,.29,.56,.65,.91,.86,4.24,2.63,8.65,5.01,12.68,7.93,3.77,2.73,7.26,5.89,10.63,9.12,5.4,5.17,10.94,10.24,15.78,15.91,5.04,5.91,9.3,12.47,13.92,18.74,.85,1.15,1.78,2.23,2.67,3.35Zm56.07-23.37c-.02-.36,.09-.79-.07-1.08-1.96-3.73-4.19-7.2-8.56-8.5-1.24-.37-2.6-1.63-2.27,1.39,.43,3.92,.47,7.96,.02,11.87-.66,5.75-1.85,11.44-2.91,17.14-.24,1.3-.9,2.52-1.39,3.77-.12,.31-.55,.62-.49,.85,.44,1.69,.9,3.39,1.51,5.03,.22,.59,.84,1.06,1.36,1.49,.07,.06,.74-.36,.89-.68,1.88-3.95,4.38-7.76,5.42-11.92,1.49-6,1.91-12.27,2.82-18.43,.05-.33,.34-.61,.52-.92,.15,.3,.42,.6,.41,.89-.04,1.61-.03,3.24-.24,4.84-.59,4.52-.9,9.13-2.06,13.51-.96,3.63-3.06,6.95-4.5,10.46-.91,2.23-3.69,3.94-2.05,6.95,.23,.41,.21,.96,.3,1.44,.41-.42,.97-.77,1.22-1.28,1.98-4.01,4.38-7.91,5.74-12.13,2.58-7.99,4.63-16.16,4.32-24.7Z"/>
  <path class="cls-1" d="M206.36,141.17c2.82,1.29,5.83,2.35,6.5,6,.3,1.62,2.06,2.56,3.98,2.31,4.82-.64,7.86-3.69,10.61-7.38,1.35-1.82,3.05-3.82,5.04-4.61,4.65-1.84,7.05-5.3,8.63-9.68,2-5.55,3.56-11.2,3.5-17.18-.03-2.95-.03-5.9,0-8.84,0-.42,.3-.83,.46-1.25,.17,.36,.44,.7,.49,1.08,1.28,10.78-.66,21.04-5.22,30.82-1.39,2.97-3.93,4.93-7.05,5.95-2.18,.71-3.72,2.07-4.83,3.99-2.84,4.9-6.97,7.9-12.63,8.67-.21,.03-.48-.16-.66-.1-.4,.15-1.06,.35-1.1,.62-.32,1.86-.52,3.74-.75,5.61-.02,.2,0,.4,.01,.61,.13-.04,.29-.04,.38-.12,2.14-1.72,4.5-1.32,6.97-.92,5.6,.89,10.6-.6,14.81-4.43,3.55-3.22,5.1-7.56,6.8-11.9,.72-1.83,2.51-3.59,4.27-4.6,4.17-2.39,6.36-5.8,6.89-10.47,.05-.48,.58-.91,.88-1.36,.18,.43,.33,.88,.56,1.28,.72,1.28,1.62,2.49,2.18,3.84,.58,1.39,.82,2.91,1.25,4.36,.06,.21,.51,.52,.59,.47,3.91-2.47,8.16-4.58,11.59-7.6,2.8-2.47,4.72-5.98,6.87-9.13,1.22-1.78,.33-3.77-.02-5.64-.38-2.03-.93-4.03-1.42-6.03-.07-.29-.2-.56-.31-.84-.26,.25-.59,.45-.76,.75-.59,1.05-1.06,2.17-1.69,3.18-.24,.39-.81,.58-1.24,.86,.04-.44-.03-.92,.14-1.3,1.82-4.08,3.95-8.04,5.42-12.24,.81-2.32,.41-4.99-1.04-7.3-1.27-2.03-2.2-4.3-3.61-6.22-1.48-2.02-3.35-3.75-5.06-5.6-.27-.29-.62-.51-.89-.81-.03-.03,.24-.48,.33-.47,.48,.09,1.14,.11,1.4,.43,2.01,2.42,4.25,4.73,5.8,7.43,1.76,3.06,3.19,6.4,4.17,9.79,.46,1.61,0,3.89-.87,5.38-1.65,2.84-.8,5.55-.45,8.33,.36,2.84,1.14,5.66,1.24,8.5,.05,1.52-.73,3.2-1.53,4.58-1.03,1.79-2.77,3.21-3.61,5.07-.72,1.6-.61,3.57-.87,5.38-.41,2.89-.66,5.81-1.28,8.66-.88,4.06-2.12,8.03-3.06,12.08-.74,3.17-2.86,5-5.5,6.57-2.44,1.46-4.87,2.67-7.79,2.74-.41,0-.89,.76-1.2,1.25-1.4,2.19-2.74,4.42-4.13,6.61-.22,.35-.55,.73-.92,.87-2.42,.89-3.45,3.06-5,4.85-2.13,2.44-4.73,4.65-7.53,6.28-3.13,1.82-4.84,4.52-6.09,7.58-1.06,2.58-2.46,4.76-4.73,6.36-.15,.1-.48-.06-.73-.1-.12-.02-.24-.05-.35-.02-.07,.02-.11,.14-.16,.21-.18,.26-.31,.68-.55,.75-.84,.24-1.71,.36-2.57,.53,.83,.43,1.76,.73,2.48,1.3,2.55,2,5.17,4.76,3.09,10.4-.52,1.42-.23,3.17-.14,4.76,.02,.39,.71,.77,1.13,1.11,.25,.21,.57,.33,.86,.5-.39,.57-.7,1.54-1.2,1.65-3.88,.92-6.77-1-7.75-4.93-.23-.91-.33-1.76-1.72-2.12-1.52-.4-1.09,.39-1.04,1.03,.16,2.3,.48,4.59,.56,6.89,.22,6.88,.31,13.76,.54,20.63,.06,1.71,.47,3.4,.69,5.11,.04,.29-.11,.61-.17,.91-.18-.28-.5-.55-.53-.84-.37-4.16-.84-8.31-1.01-12.48-.23-5.55-.06-11.12-.35-16.67-.22-4.21-.87-8.39-1.35-12.59-.02-.16-.28-.28-.34-.45-.11-.32-.2-.66-.21-.99,0-.08,.33-.17,.51-.26,.09,.26,.23,.52,.28,.79,.34,2.05,.52,4.14,1.07,6.13,.23,.81,1.24,1.41,1.94,2.06,.03,.03,.63-.33,.63-.5-.02-2.02-.11-4.04-.16-6.06,0-.23,.05-.46,.08-.68,.2,.15,.55,.28,.56,.45,.16,2.02,.34,4.05,.36,6.08,.03,2.62,1,6.58,4.01,7.43,.22,.06,.45,.08,.67,.12-.14-.15-.29-.28-.42-.44-.55-.68-1.13-1.34-1.62-2.06-.09-.13,.19-.51,.3-.78,.19,.15,.42,.27,.55,.47,.2,.29,.24,.75,.5,.91,.78,.5,1.64,.9,2.46,1.34-.3-.67-.87-1.36-.84-2.02,.08-2.09,.13-4.24,.67-6.23,.75-2.82,.32-5.54-2.13-7.02-2.69-1.61-5.64-2.79-8.49-4.12-.09-.04-.51,.27-.52,.43-.02,.56,.13,1.13,.1,1.7-.02,.41-.19,.82-.32,1.21-.03,.08-.2,.11-.31,.16-.1-.42-.22-.84-.31-1.26-.74-3.66-1.31-7.37-2.34-10.94-.24-.84-2.06-1.24-3.17-1.8-2.93-1.47-3.96-3.32-3.78-6.56,.05-.94-.08-1.93-.32-2.84-.07-.26-1.02-.61-1.22-.46-1.82,1.42-3.47,3.08-5.36,4.39-2.33,1.61-5.45,.79-7.04-1.67-.37-.57-.67-1.29-.68-1.94,0-.65,.41-1.3,.64-1.95,.22,.55,.58,1.09,.65,1.66,.24,2.14,1.88,3.19,3.54,3.53,1.01,.21,2.45-.77,3.43-1.55,2.73-2.18,5.44-4.42,7.92-6.88,1.18-1.17,1.85-2.87,2.68-4.37,2.19-3.94,3.93-8.09,4-12.63,.07-4.59-1.51-8.46-6.26-10.19-.98-.36-.65-.81-.34-1.37,0,0-.04,.03-.04,.03Zm16.17,23.93c1.11,.42,3.27,1.22,5.42,2.07,.15,.06,.28,.6,.19,.7-.17,.19-.56,.36-.78,.29-.49-.16-.91-.52-1.39-.71-1.35-.54-2.7-1.39-4.1-1.49-2.61-.19-4.7,1.38-6.89,2.63-1.84,1.05-3.8,2.8-6.09,.67-.11-.1-.6,.01-.76,.18-.99,1.01-1.94,2.06-2.89,3.11-.15,.17-.32,.45-.29,.65,.23,1.55,.65,3.09,.74,4.65,.16,2.59,3.41,6.04,6.02,6.48,1.73,.29,3.4,.96,5.08,1.51,.25,.08,.41,.42,.61,.64-.27,.13-.55,.37-.81,.35-.87-.07-1.73-.28-2.6-.35-.28-.02-.59,.19-.89,.3,1.3,2,.14,4.99,2.79,6.5,2.39,1.37,4.82,1.92,7.37,.87,2.64-1.08,4.34-3.02,5.39-5.8,1.37-3.64,3.42-6.84,7-8.95,2.53-1.49,4.79-3.5,6.99-5.47,.87-.78,1.27-2.08,1.88-3.15-1.03,.34-2.06,.68-3.09,1.01-.18,.06-.38,.05-.56,.07,.03-.17,0-.41,.09-.51,.4-.4,.79-.92,1.29-1.11,2-.74,4.24-1.04,5.99-2.15,1.28-.81,2-2.58,2.85-4,1.25-2.1,2.94-4.15,3.41-6.44,.51-2.46,.02-5.2-.41-7.75-.18-1.07-.73-1.82,.48-2.58,.34-.22,.47-.89,.57-1.37,.5-2.56,1.02-5.11,1.42-7.68,.55-3.6,.51-7.15-1.52-10.38-.15-.23-.36-.42-.54-.63-.11,.2-.27,.39-.31,.6-.64,3.13-2.25,5.54-4.89,7.4-2.52,1.78-5.52,3.11-6.33,6.63-.37,1.6-1.11,3.16-1.9,4.62-1.61,2.96-3.26,6.05-6.31,7.71-2.69,1.46-5.61,2.7-8.58,3.41-2.15,.52-4.62,.35-6.82-.1-2.41-.5-4.36-.23-5.7,1.79-1.33,2-2.41,4.17-3.49,6.32-.39,.77-.85,1.85-.6,2.54,.51,1.41,2.68,1.37,4.29,.2,2.26-1.64,4.47-3.43,8.71-3.27Zm49-33.26c0-1.31,.02-2.08,0-2.86,0-.35-.09-.69-.14-1.04-.35,.14-.73,.24-1.05,.43-3.32,2.05-6.62,4.15-9.96,6.16-1.48,.89-2.92,1.68-2.81,3.77,.05,.99-.15,2-.21,3-.02,.23,.05,.47,.08,.7,.21-.09,.46-.12,.62-.27,1.49-1.41,2.97-2.85,4.46-4.27,.2-.19,.47-.3,.7-.45,.05,.29,.18,.59,.13,.85-.07,.34-.21,.72-.45,.95-1.76,1.64-3.55,3.24-5.33,4.86-.31,.29-.71,.56-.87,.92-.5,1.2-.94,2.42-1.32,3.66-.12,.4-.05,.92,.12,1.3,.07,.15,.74,.22,.99,.08,2.5-1.47,5.03-2.9,7.42-4.53,1.8-1.22,3.68-2.5,5.04-4.15,2.26-2.74,2.79-6.14,2.57-9.11Zm-2.33,12.25c-.11-.04-.22-.08-.33-.11-.02-.29-.05-.58-.07-.88-.1,.06-.21,.11-.3,.18-1.64,1.22-3.19,2.58-4.93,3.65-2.45,1.51-5.04,2.81-7.55,4.22-.13,.08-.2,.37-.21,.56-.06,2.23-.11,4.46-.14,6.69,0,.2,.2,.56,.34,.58,2.25,.27,9.23-3.29,10.07-5.41,1.21-3.09,2.09-6.3,3.11-9.46Z"/>
  <path class="cls-1" d="M137.94,269.25c.38-1.79,.56-3.27,1.02-4.65,1.04-3.11-.99-5.36-1.97-7.94-1.28-3.37-2.32-6.83-3.43-10.27-.33-1.01-.11-2.1-1.99-1.89-3.41,.38-6.88,.37-10.32,.29-4.57-.11-9.15-.25-13.69-.75-4.53-.5-8.72-2.43-12.41-4.96-2.3-1.58-2.73-4.53-2.42-7.41,.39-3.66,.82-7.34,.83-11.01,0-1.04-1.34-2.11-2.12-3.11-.43-.55-.94-1.09-1.51-1.49-2.24-1.59-1.58-3.78-1.48-5.95,.03-.63-.68-1.53-1.29-1.91-2.62-1.65-2.85-4-1.08-6.58,1.43-2.08,2.75-4.3,1.49-7.04-1.06-2.3-5.01-4.35-7.57-4.14-4.41,.36-8.02-2.27-8.74-6.52-.22-1.3,.45-2.9,1.1-4.17,.98-1.92,2.61-3.54,3.4-5.51,.97-2.43,1.51-5.07,1.98-7.67,.73-4.05,1.27-8.14,1.84-12.22,.49-3.54,.8-7.1,1.4-10.62,.89-5.27-.83-10.16-1.88-15.17-1.29-6.15-1.39-12.28,.99-18.24,1.43-3.59,2.98-7.14,4.41-10.74,.12-.3-.14-1-.43-1.19-2.38-1.54-4.53-3.25-5.5-6.07-.88-2.55-2.24-5.01-2.65-7.63-.75-4.78,2.31-8.01,5.52-10.94,3.11-2.84,6.33-5.56,9.52-8.31,.32-.28,.79-.39,1.19-.58-.14,.5-.12,1.17-.44,1.47-3.52,3.21-7.18,6.27-10.64,9.54-5.02,4.76-5.45,9.07-2.16,15.01,1.18,2.14,3.04,3.93,4.74,5.74,.65,.7,1.57,1.14,2.3-.37,.74-1.52,.46-2.88,.35-4.42-.21-3.1-.16-6.24,.12-9.34,.25-2.7,.67-5.46,2.6-7.65,1.98-2.24,3.92-4.51,5.92-6.73,.18-.2,.68-.13,1.03-.18-.06,.34,0,.79-.2,1.02-1.68,1.96-3.38,3.9-5.11,5.81-2.18,2.41-3.45,5.21-3.56,8.46-.09,2.59-.04,5.19,0,7.78,0,.35,.32,.7,.49,1.05,.25-.22,.57-.39,.75-.66,.93-1.35,1.81-2.73,2.75-4.06,.19-.27,.59-.4,.9-.59,.05,.5,.31,1.11,.11,1.47-1.96,3.52-4.25,6.87-5.94,10.51-2.07,4.48-3.63,9.21-5.45,13.81-2.67,6.77-.95,13.34,.85,19.9,1.43,5.24,.9,10.56,.54,15.83-.21,3.01-1.27,5.95-1.76,8.95-.85,5.22-1.27,10.52-2.43,15.66-.59,2.6-2.3,4.98-3.67,7.36-2.65,4.61,1.12,9.7,6.24,9.09,2.24-.27,4.61,.61,6.92,.99,.08,.01,.19,.34,.18,.35-.33,.21-.66,.44-1.03,.58-.16,.06-.39-.08-.59-.13,.16,.15,.32,.3,.49,.43,1.75,1.32,3.04,3.15,2.69,5.24-.38,2.23-1.63,4.3-2.4,6.48-.24,.69-.51,1.83-.16,2.18,.83,.84,2.25,2.08,3.01,1.83,3.94-1.25,7.71-.76,11.53,.33,.57,.16,1.18,.17,1.74,.33,.29,.09,.54,.36,.8,.55-.4,.14-.82,.42-1.2,.38-2.67-.28-5.33-.66-8-.94-.72-.08-1.48,0-2.19,.15-.93,.2-2.6,.54-2.61,.83-.02,2.15-.64,4.54,1.37,6.25,1.8,1.53,3.84,2.92,3.9,5.6,.06,2.74,.06,5.5-.07,8.24-.09,1.93-.58,3.85-.66,5.78-.1,2.47,2.03,3.32,3.7,4.33,3.17,1.9,6.53,3.57,10.25,3.87,5.17,.42,10.37,.55,15.56,.65,2.27,.04,4.57-.13,6.8-.51,4.44-.77,8.89-1.59,13.26-2.7,3.1-.79,6.08-2.07,9.1-3.16,.58-.21,1.1-.61,1.69-.81,.21-.07,.54,.16,.81,.25-.24,.14-.47,.3-.71,.42-3.3,1.52-6.53,3.22-9.91,4.5-2.5,.95-5.2,1.39-7.82,2.02-.61,.15-1.27,.05-1.88,.2-1.53,.37-.9,1.58-.69,2.38,.62,2.4,1.22,4.84,2.19,7.1,.83,1.95,2.47,3.57,3.18,5.55,.57,1.58,.54,3.49,.31,5.2-.42,3.14-1.35,6.21-.26,9.4,1.32,3.87,2.58,7.77,3.81,11.67,.12,.38-.16,.89-.26,1.34-.31-.38-.77-.71-.91-1.14-.9-2.79-1.8-5.58-2.58-8.41-.72-2.61-1.29-5.25-1.87-7.64Z"/>
  <path class="cls-1" d="M92.13,81.26c.03-.42,0-.79,.08-1.15,.11-.47,.3-.93,.45-1.39,.25,.51,.78,1.06,.72,1.53-.75,5.31,3.35,8.94,8.28,9,1.07,.01,2.13,.31,3.21,.44,.25,.03,.52-.07,.78-.12-.15-.15-.3-.31-.46-.45-4.85-4.06-7.57-9.3-7.73-15.56-.05-2.17,1.21-4.4,1.99-6.56,.44-1.21,1.11-2.35,1.73-3.49,.13-.23,.51-.33,.77-.49,.07,.33,.29,.72,.18,.98-.76,1.86-1.49,3.74-2.42,5.53-1.51,2.93-1.13,5.88-.34,8.85,1.48,5.5,5.25,9.1,10.03,11.82,.61,.35,1.22,.68,1.83,1.02-.06-.8-.19-1.6-.16-2.39,.1-2.22,.31-4.43,.38-6.65,.04-1.14-.16-2.29-.15-3.43,0-.34,.37-.67,.56-1.01,.21,.34,.6,.68,.6,1.02,.05,2.91,.21,5.83,0,8.72-.47,6.41,2.35,10.78,7.98,13.5,2.8,1.36,5.65,2.6,8.47,3.91,.43,.2,1,.4,1.19,.76,.2,.41,.04,1,.03,1.51-.29-.16-.58-.33-.88-.48-1.62-.83-3.23-1.69-4.88-2.46-4.18-1.95-8.51-3.68-11.19-7.74-.69-1.04-1.07-2.29-1.69-3.38-.2-.36-.78-.48-1.13-.78-2.48-2.14-5.51-1.48-8.35-1.6-4.76-.19-8.57-2.92-9.68-7.24-.19-.73-.15-1.52-.21-2.24Z"/>
  <path class="cls-1" d="M112.22,153.19c-1.88-.41-3.77-.76-5.62-1.28-.43-.12-.69-.83-1.02-1.27,.52-.04,1.04-.08,1.56-.12,.03,0,.07,.05,.1,.06,.82,.24,1.65,.48,2.47,.72-.21-.65-.54-1.28-.62-1.94-.22-1.99-.28-4-.55-5.99-.04-.3-.91-.79-1.24-.69-.83,.25-1.57,.82-2.36,1.21-.33,.17-.83,.43-1.05,.3-.32-.19-.55-.68-.61-1.07-.02-.14,.56-.42,.91-.54,1.91-.67,3.81-1.74,5.76-1.87,3.93-.27,7.4,1.55,10.78,3.35,.95,.51,1.76,1.33,2.75,1.7,.73,.27,1.65-.03,2.47,.03,.33,.02,.92,.38,.91,.52-.06,.5-.21,1.25-.56,1.42-3.59,1.72-7.2,3.42-10.87,4.96-.91,.38-2.08,.17-3.13,.22-.03,.1-.05,.19-.08,.29Zm-.55-11.06c-1.43-.31-1.89,.55-1.9,1.62,0,1.78,.03,3.59,.33,5.35,.26,1.53,1.06,2.85,3,2.52,1.53-.26,3.11-.43,4.54-.98,2.12-.82,4.13-1.94,6.16-2.97,.1-.05,.09-.69,0-.73-3.01-1.32-6.03-2.62-9.08-3.86-.98-.4-2.04-.63-3.06-.93Z"/>
  <path class="cls-1" d="M254.01,288.32c-.28,.38-.39,.67-.58,.76-.18,.08-.49,.02-.68-.09-3.39-2.07-6.65-4.39-10.17-6.19-6.41-3.27-11.24-8.03-14.85-14.19-.88-1.49-2.12-2.77-3.21-4.14-.14-.18-.38-.28-.57-.42,.03,.24,.03,.49,.08,.73,.99,4.56,2,9.11,2.96,13.67,.14,.68,.11,1.39,.16,2.09-.37-.67-.92-1.3-1.1-2.03-1.98-8.09-3.91-16.19-5.84-24.29-.44-1.83-.84-3.66-1.23-5.5-.05-.24,.1-.53,.16-.8,.17,.21,.44,.39,.5,.63,.64,2.48,1.21,4.97,1.87,7.45,.53,2,.85,4.15,1.82,5.93,.93,1.71,2.63,2.99,3.89,4.54,2.51,3.11,4.75,6.45,7.48,9.35,1.79,1.9,4.14,3.32,6.38,4.73,4.01,2.52,8.12,4.86,12.19,7.28,.22,.13,.43,.27,.74,.48Z"/>
  <path class="cls-1" d="M132.94,54.52c1.26,.56,2.58,1.02,3.76,1.71,1.95,1.14,3.81,.88,5.55-.27,3.25-2.14,6.43-1.44,9.84-.32,4.26,1.4,8.65,2.44,13.02,3.47,2.55,.6,5.18,.85,7.77,1.27,.16,.03,.31,.15,.47,.23-.25,.24-.48,.68-.74,.7-1.18,.08-2.43,.26-3.56,0-5.32-1.21-10.63-2.5-15.92-3.86-2.26-.58-4.42-1.71-6.71-2-1.2-.15-2.63,.86-3.85,1.54-2.1,1.17-4.18,1.67-6.41,.48-4.14-2.21-8.91-1.5-12.47,1.84-.91,.86-1.83,1.71-2.79,2.52-.25,.21-.67,.23-1.01,.34,.06-.38-.03-.95,.19-1.12,3.82-2.94,7.4-6.42,12.83-6.53Z"/>
  <path class="cls-1" d="M100,308.77c-.19-.14-.6-.38-.58-.43,.14-.31,.31-.68,.58-.86,6.14-3.98,12.53-7.5,19.53-9.75,2.15-.69,4.5-.84,6.57-1.68,2.75-1.11,5.33-2.63,7.96-4.03,3.7-1.97,7.37-3.98,11.03-6.02,.6-.33,1.05-.91,1.59-1.35,.29-.24,.62-.43,.93-.64-.09,.48,0,1.19-.28,1.4-1.73,1.3-3.48,2.63-5.36,3.69-2.98,1.68-6,3.33-9.12,4.7-4.04,1.77-8.21,3.22-12.3,4.85-3.52,1.4-7.1,2.68-10.48,4.36-3.29,1.63-6.37,3.71-9.54,5.58-.12,.07-.27,.09-.52,.16Z"/>
  <path class="cls-1" d="M207.78,74.5c2.48,.92,5.07,2.03,7.74,2.86,5.18,1.61,10.4,2.53,15.39-.62,1.09-.69,1.93-1.78,2.96-2.59,.29-.23,.85-.1,1.28-.14-.07,.42,0,1-.24,1.25-2.84,2.84-6.15,4.96-10.28,4.64-3.62-.28-7.22-1.05-10.78-1.8-1.79-.38-3.45-1.48-5.25-1.75-1.46-.22-3.04,.34-4.57,.5-.38,.04-.79-.09-1.18-.14,.2-.33,.33-.85,.6-.95,1.31-.45,2.65-.79,4.33-1.26Z"/>
  <path class="cls-1" d="M107.53,125.21c2.11,0,4.23-.08,6.33,.05,.69,.04,1.36,.62,2.03,.95-.59,.15-1.18,.4-1.78,.45-3.94,.28-7.92,.29-11.81,.86-1.66,.24-3.3,1.41-4.68,2.51-2.59,2.06-5.17,4.21-6.42,7.47-.09,.25-.44,.39-.67,.59-.09-.34-.37-.75-.26-1,2.44-5.61,6.35-9.72,12.33-11.5,1.55-.46,3.28-.32,4.93-.45v.09Z"/>
  <path class="cls-1" d="M168.86,297.88c-.96,6.3-1.99,13.05-3.04,19.78-.03,.2-.28,.36-.43,.54-.17-.27-.53-.58-.49-.81,.66-3.96,1.62-7.89,1.99-11.87,.37-4.01,.28-8.08,.16-12.12-.06-1.97-.44-3.99-1.05-5.87-.38-1.16-1.48-2.09-2.24-3.13-.17-.23-.3-.48-.45-.72,.25-.02,.52-.09,.76-.04,2.04,.44,2.56,2.23,2.93,3.83,.74,3.22,1.18,6.51,1.86,10.4Z"/>
  <path class="cls-1" d="M88.52,65.46c.89-3.31,1.67-6.39,2.57-9.43,.58-1.94,1.09-3.97,2.08-5.7,2.03-3.54,4.7-3.38,7.96-2.85,1.87,.3,3.74,.58,5.59,.94,.4,.08,.74,.47,1.11,.71-.41,.16-.85,.5-1.24,.45-2.54-.33-5.06-.76-7.59-1.13-2.59-.37-5.51,2.11-6.29,5.27-.85,3.46-1.74,6.9-2.6,10.36-.1,.42,0,.91-.16,1.31-.15,.38-.52,.68-.8,1.02-.25-.37-.5-.74-.64-.94Z"/>
  <path class="cls-1" d="M89.11,147.37c-.66,2.83-1.44,5.87-2.05,8.94-.58,2.92-.95,5.88-1.47,8.81-.42,2.32-.93,4.61-1.42,6.92-.04,.21-.25,.38-.39,.57-.12-.24-.38-.5-.35-.72,.4-2.91,.8-5.83,1.29-8.72,.83-4.87,1.71-9.73,2.59-14.59,.12-.66,.41-1.28,.62-1.92,.2-.61,.4-1.22,.59-1.83,.17,.76,.34,1.53,.57,2.55Z"/>
  <path class="cls-1" d="M110.73,136.46c-1.68,.32-3.16,.64-4.66,.88-.49,.08-1.01-.04-1.51-.12-.16-.02-.3-.19-.45-.3,.11-.15,.19-.4,.34-.44,1.71-.52,3.42-1.4,5.14-1.39,1.74,0,3.52,.79,5.21,1.42,2.58,.95,5.11,2.03,7.64,3.12,.42,.18,.69,.72,1.03,1.1-.49-.02-1.03,.08-1.47-.08-3.59-1.34-7.16-2.73-10.75-4.09-.22-.08-.47-.08-.51-.09Z"/>
  <path class="cls-1" d="M202.89,217.2c-.99,4.99-2,9.98-2.96,14.98-.39,2.04-.58,4.11-1.03,6.14-.49,2.24-1.16,4.43-1.75,6.64-.08,.3-.2,.6-.3,.89-.12-.12-.3-.23-.34-.38-.09-.3-.22-.65-.15-.93,.4-1.57,.94-3.11,1.27-4.69,.73-3.5,1.03-7.12,2.1-10.51,1.41-4.5,1.31-9.16,2.08-13.72,.13-.75,.13-1.52,.26-2.27,.09-.51,.31-1,.47-1.5,.08,.52,.25,1.03,.23,1.55-.06,1.24-.2,2.48-.31,3.72,.15,.03,.3,.05,.44,.08Z"/>
  <path class="cls-1" d="M208.16,151.83c0,1.14,.05,2.28-.03,3.42-.02,.33-.39,.63-.6,.94-.12-.32-.32-.63-.33-.96-.1-2.37-.13-4.75-.29-7.11-.02-.32-.64-.83-1-.86-2.01-.15-3.64,.74-4.63,2.42-.27,.46,.28,1.42,.45,2.15,.34,1.52,.64,3.05,1.01,4.57,.2,.83,.48,1.64,.79,2.43,.21,.55,.6,1.03,.78,1.58,.07,.21-.25,.54-.39,.82-.13-.18-.25-.37-.38-.54-.47-.6-1.17-1.13-1.35-1.8-.3-1.1-.23-2.29-.38-3.44-.13-1-.1-2.15-.59-2.96-1.64-2.7-1.65-3.44,.87-5.11,1-.66,2.21-1.1,3.38-1.34,1.77-.36,2.54,.8,2.68,2.37,.1,1.13,.02,2.28,.02,3.42Z"/>
  <path class="cls-1" d="M269.26,93.61c-1.1,2.22-2.11,4.53-3.34,6.71-1.89,3.33-3.87,6.62-5.96,9.83-1.28,1.97-2.83,3.77-4.29,5.62-.16,.21-.57,.22-.86,.32,.02-.33-.09-.75,.08-.97,1.92-2.55,3.97-4.99,5.78-7.61,1.26-1.82,2.25-3.84,3.29-5.81,1.47-2.79,2.86-5.61,4.31-8.41,.11-.22,.38-.36,.57-.53,.12,.24,.24,.48,.44,.85Z"/>
  <path class="cls-1" d="M168.53,69.78c-2.52-.52-4.36-.88-6.18-1.31-.26-.06-.43-.49-.64-.75,.31-.05,.65-.2,.93-.13,5.15,1.39,9.67-.34,14.07-2.77,.74-.4,1.62-.54,2.43-.8-.58,.6-1.04,1.43-1.75,1.76-3.06,1.47-6.18,2.8-8.87,3.99Z"/>
  <path class="cls-1" d="M113.48,157.82c-.18-.19-.68-.68-.65-.71,.4-.47,.89-1.25,1.34-1.25,3.69,.04,6.86-1,9.44-3.77,.34-.37,1.4-.06,2.12-.07-.27,.5-.43,1.13-.84,1.47-3.23,2.66-7.12,3.65-11.41,4.33Z"/>
  <path class="cls-1" d="M89.03,188.42c-3.11-.46-6.05-.87-8.98-1.35-.25-.04-.43-.5-.64-.76,.53-.29,1.12-.92,1.57-.83,2.67,.52,5.3,1.2,7.94,1.86,.27,.07,.47,.39,.71,.6-.22,.18-.44,.35-.6,.48Z"/>
  <path class="cls-1" d="M273.13,116.66c-.53,.78-.94,1.7-1.61,2.34-2.7,2.6-5.46,5.14-8.27,7.62-.35,.31-1.11,.15-1.68,.21,.39-.43,.76-.88,1.18-1.28,3.12-2.98,6.26-5.94,9.38-8.91,.2-.19,.4-.39,.59-.59,.1,.16,.21,.32,.39,.61Z"/>
  <path class="cls-1" d="M201.03,162.04c-.42,.65-.87,1.45-1.43,2.17-.51,.65-1.09,1.26-1.72,1.8-.32,.28-.81,.35-1.23,.52,0-.39-.15-.89,.04-1.15,.47-.64,1.03-1.26,1.67-1.73,1.73-1.28,1.77-2.92,.38-4.53-.8-.93-1.11-2.27-1.61-3.44-.05-.11,.05-.28,.08-.42,.15,.1,.34,.16,.43,.3,.96,1.55,1.93,3.1,2.84,4.69,.25,.43,.31,.97,.55,1.8Z"/>
  <path class="cls-1" d="M99.8,186.95c-.53,1.94-3.24,4.67-5.11,5.04-.41,.08-.82,.16-1.23,.24,.34-.41,.65-.84,1.01-1.22,1.24-1.31,2.62-2.51,3.67-3.95,.28-.39-.29-1.58-.7-2.26-.47-.76-1.22-1.34-1.82-2.02-.18-.2-.28-.46-.42-.69,.26,.02,.64-.07,.75,.06,1.31,1.58,2.58,3.19,3.86,4.79Z"/>
  <path class="cls-1" d="M264.77,114.43c-.14,.23-.25,.48-.43,.67-2.28,2.47-4.56,4.94-6.89,7.37-.2,.21-.76,.07-1.15,.09,.06-.35,0-.81,.2-1.02,2.5-2.55,5.04-5.06,7.58-7.57,.1-.1,.27-.15,.4-.22,.09,.2,.17,.4,.29,.68Z"/>
  <path class="cls-1" d="M195.68,252.16c-.35,2.42-.73,4.99-1.08,7.56-.22,1.62-.41,3.24-.63,4.86-.03,.22-.15,.44-.23,.65-.13-.23-.4-.48-.36-.69,.21-1.32,.53-2.62,.71-3.94,.09-.67-.1-1.38-.05-2.07,.04-.56,.31-1.1,.37-1.66,.17-1.55,.25-3.1,.45-4.65,.05-.42,.38-.81,.58-1.21,.07,.33,.14,.65,.24,1.15Z"/>
  <path class="cls-1" d="M94.78,215.72c-.2,0-.42,.04-.61,0-.67-.16-1.32-.34-1.98-.52,.22-.21,.43-.57,.68-.6,.37-.04,.8,.29,1.15,.21,1.79-.37,3.57-.82,5.35-1.23,.29-.07,.59-.05,.89-.08-.13,.3-.18,.78-.39,.86-1.64,.63-3.3,1.18-4.96,1.75-.04-.13-.09-.26-.13-.39Z"/>
  <path class="cls-1" d="M90.45,201.97c.25-1.15,.55-2.43,.79-3.71,.1-.53,.07-1.08,.09-1.62,0-.33-.02-.65-.03-.98,.38,.24,1.11,.55,1.08,.7-.42,2.1-.94,4.19-1.46,6.27-.02,.09-.25,.13-.38,.19-.03-.24-.05-.48-.09-.86Z"/>
  <path class="cls-1" d="M214,180.56c-.35-.09-.75-.09-1.02-.28-.72-.48-1.38-1.03-2.07-1.56,.65,.18,1.29,.39,1.95,.54,2.86,.64,5.34-.45,7.87-1.62,3.26-1.51,5.05-4.3,6.61-7.22,1.7-3.2,4.37-5.07,7.51-6.53,3.07-1.42,6.34-2.59,9.08-4.5,2.43-1.69,4.25-4.26,6.35-6.43,.18-.18,.41-.32,.62-.47-.06,.22-.09,.45-.17,.67-1.46,4.15-4.67,6.57-8.38,8.52-4.08,2.13-8.23,4.14-12.12,6.58-1.29,.81-1.86,2.76-2.75,4.19-2.74,4.4-6.63,7.07-11.8,7.81-.55,.08-1.1,.2-1.67,.31Z"/>
</svg>