<?xml version="1.0" encoding="UTF-8"?>
<svg id="smallogo" data-name="Layer 1" xmlns="http://www.w3.org/2000/svg" viewBox="0 0 198.43 198.43">
  <path d="M66.29,29.52c-8.87-1.93-9.31-2.28-11.58,7.99-.98,3.77-6.51,4.2-6.58,9.59,6.72,10.71,3.78,6.19,1.24,18.2-.37-.38,1.93,10.04,1.36,13.14-.49,3.35-1.38,12.31-2.48,14.98-2.06,3.95-4.18,4.92-.68,8.17,3.12,1.4,5.57-.3,6.87,3.52-.06,2.25-3.22,5.16,0,6.73,.11,.19,.07,.25,.15,1.47-.27,2.8,3.91,3.3,2.65,6.42-4.86,12.29,15.44,11.16,20.31,10.52,1.46-.76,.69,1.75,.99,2.56,.07,1.78,1.67,2.87,2.17,5.66-.72,5.31-.35,11.31,2.81,14.57-4.86,2.89-18.32,6.27-23.17,10.23-4.25,1.61-9.97,3.92-10.51,8.09,11.5,9.88,36.35,10.41,58.94-2.43,9.09-5.82,10.91-8.82,28.21-10.49,4.5-.35,5.49,.56,8.2,1.18,2.8-6.34-4.04-5.55-9.81-9.08-14.01-6.07-13.9-26.07-14.68-41.24,.61-2.62,3.3-3.07,5.52-5.66,2.2-5.7,4.24-7.21,9.74-11.82,3.64-4.24,4.51-6.59,5.91-10.05,7.25-4.6,11.5-11.11,8.71-20.16-2.19-12.37,8.63-5.48-4.4-19.48-2.07-7.87-7.89-11.5-15.31-8.88-5.59-2.87-9.93-11.07-17.74-8.67-.36,.08-2.04,.46-2.06,.4,3.79-.11,3.43-3.33-.8-4.64-4.7-1.86-8.71,1.16-15.71,3.17-11.75,.01-17.47,5.2-28.26,6.02Z" style="fill: var(--color);"/>
</svg>